<svg xmlns="http://www.w3.org/2000/svg" viewBox="0 0 512 512" role="img" aria-label="Magpie icon">
  <circle cx="256" cy="256" r="240" fill="white" stroke="#e5e7eb" stroke-width="8" />

  <g transform="translate(256 256) scale(0.82) translate(-256 -256)">
    <path fill="currentColor" fill-rule="evenodd" d="M 378.0,404.5 L 352.0,400.5 L 331.0,403.5 L 329.5,400.0 L 330.0,397.5 L 344.0,393.5 L 344.5,391.0 L 327.0,345.5 L 334.0,347.5 L 342.5,347.0 L 351.5,388.0 L 354.0,391.5 L 365.0,394.5 L 363.5,393.0 L 365.0,391.5 L 372.5,389.0 L 354.5,343.0 L 351.5,341.0 L 351.5,337.0 L 358.5,325.0 L 359.5,320.0 L 356.5,321.0 L 353.5,330.0 L 344.0,343.5 L 331.0,344.5 L 322.5,340.0 L 323.5,320.0 L 298.0,309.5 L 262.0,309.5 L 247.0,305.5 L 240.0,305.5 L 238.0,308.5 L 151.0,338.5 L 90.0,356.5 L 67.0,360.5 L 56.0,360.5 L 47.0,357.5 L 44.5,354.0 L 133.0,330.5 L 201.0,306.5 L 208.0,309.5 L 230.0,308.5 L 211.0,308.5 L 204.5,306.0 L 204.5,304.0 L 211.0,297.5 L 227.0,288.5 L 228.5,289.0 L 227.5,293.0 L 232.0,298.5 L 240.0,299.5 L 273.0,293.5 L 298.0,286.5 L 299.5,298.0 L 307.0,307.5 L 326.0,313.5 L 331.0,308.5 L 344.0,303.5 L 359.0,303.5 L 359.0,312.5 L 368.0,310.5 L 382.0,303.5 L 401.5,287.0 L 413.5,270.0 L 405.5,263.0 L 402.5,239.0 L 396.5,220.0 L 396.5,216.0 L 407.5,199.0 L 410.5,186.0 L 408.5,178.0 L 402.0,171.5 L 396.0,169.5 L 386.0,169.5 L 368.0,174.5 L 364.5,174.0 L 381.5,136.0 L 391.5,121.0 L 398.0,114.5 L 408.0,108.5 L 415.0,106.5 L 429.0,106.5 L 443.0,110.5 L 454.0,116.5 L 471.0,118.5 L 482.0,124.5 L 486.5,129.0 L 453.0,136.5 L 453.5,138.0 L 450.0,139.5 L 440.5,151.0 L 434.5,179.0 L 430.5,236.0 L 422.5,266.0 L 406.5,291.0 L 387.5,308.0 L 383.5,326.0 L 373.5,342.0 L 369.5,344.0 L 379.5,386.0 L 383.0,388.5 L 405.0,394.5 L 405.5,401.0 L 376.0,397.5 L 378.5,399.0 L 378.0,404.5 Z M 428.5,130.0 L 432.5,127.0 L 433.5,120.0 L 430.0,115.5 L 423.0,114.5 L 418.5,118.0 L 417.5,125.0 L 423.0,130.5 L 428.5,130.0 Z M 428.0,128.5 L 423.0,128.5 L 419.5,124.0 L 420.5,119.0 L 424.0,116.5 L 429.0,117.5 L 431.5,121.0 L 431.5,124.0 L 428.0,128.5 Z M 245.0,294.5 L 234.0,294.5 L 232.5,291.0 L 250.5,270.0 L 270.0,251.5 L 337.0,198.5 L 367.0,178.5 L 383.0,174.5 L 398.0,174.5 L 403.5,178.0 L 405.5,182.0 L 405.5,190.0 L 398.5,206.0 L 381.5,229.0 L 353.0,254.5 L 332.0,267.5 L 305.0,279.5 L 275.0,288.5 L 245.0,294.5 Z M 33.0,381.5 L 25.0,380.5 L 24.5,378.0 L 39.0,369.5 L 54.0,363.5 L 81.0,360.5 L 110.0,353.5 L 232.0,312.5 L 234.5,313.0 L 195.0,331.5 L 138.0,353.5 L 67.0,375.5 L 33.0,381.5 Z"/>
  </g>
</svg>